#Comment line ignore any data following # character 
#Hierarchical Translation and Rotation (.htr) file 
[Header]	
#Header keywords are followed by a single value 
FileType HTR		#Single word string
DataType HTRS		#Translation followed by rotation and scale data
FileVersion 1		#integer
NumSegments 84		#integer
NumFrames 2		#integer
DataFrameRate 30		#integer, data frame rate in this file
EulerRotationOrder ZYX
CalibrationUnits mm
RotationUnits Degrees
GlobalAxisofGravity Y
BoneLengthAxis Y
ScaleFactor 1.00
[SegmentNames&Hierarchy]
#CHILD	PARENT
MASTER GLOBAL
root MASTER
chest root
L_mid_tent01 root
R_mid_tent01 root
spine01 root
Bip01_Neck chest
L_humerus chest
R_humerus chest
weapon_bone chest
Bip01_Head Bip01_Neck
eye_left_bone Bip01_Head
eye_right_bone Bip01_Head
L_forearm L_humerus
L_front_hand L_forearm
L_weapon_bone L_forearm
L_front_hand01_01 L_front_hand
L_front_hand02_01 L_front_hand
L_front_hand03_01 L_front_hand
L_front_hand01_02 L_front_hand01_01
L_front_hand02_02 L_front_hand02_01
L_front_hand03_02 L_front_hand03_01
R_forearm R_humerus
R_front_hand R_forearm
R_weapon_bone R_forearm
R_front_hand01_01 R_front_hand
R_front_hand02_01 R_front_hand
R_front_hand03_01 R_front_hand
R_front_hand01_02 R_front_hand01_01
R_front_hand02_02 R_front_hand02_01
R_front_hand03_02 R_front_hand03_01
null_rope01_connect L_mid_tent01
Rope1_Seg01 null_rope01_connect
Rope1_Seg02 Rope1_Seg01
Rope1_Seg03 Rope1_Seg02
Rope1_Seg04 Rope1_Seg03
Rope1_Seg05 Rope1_Seg04
Rope1_Seg06 Rope1_Seg05
Rope1_Seg07 Rope1_Seg06
Rope1_Seg09 Rope1_Seg07
L_mid_hand01 Rope1_Seg09
L_mid_hand02 Rope1_Seg09
L_mid_hand03 Rope1_Seg09
null_rope02_connect R_mid_tent01
Rope2_Seg01 null_rope02_connect
Rope2_Seg02 Rope2_Seg01
Rope2_Seg03 Rope2_Seg02
Rope2_Seg04 Rope2_Seg03
Rope2_Seg05 Rope2_Seg04
Rope2_Seg06 Rope2_Seg05
Rope2_Seg07 Rope2_Seg06
Rope2_Seg09 Rope2_Seg07
R_mid_hand01 Rope2_Seg09
R_mid_hand02 Rope2_Seg09
R_mid_hand03 Rope2_Seg09
spine02 spine01
spine03 spine02
pelvis spine03
null_rope03_connect pelvis
null_rope04_connect pelvis
Rope3_Seg01 null_rope03_connect
Rope3_Seg02 Rope3_Seg01
Rope3_Seg03 Rope3_Seg02
Rope3_Seg04 Rope3_Seg03
Rope3_Seg05 Rope3_Seg04
Rope3_Seg06 Rope3_Seg05
Rope3_Seg07 Rope3_Seg06
Rope3_Seg08 Rope3_Seg07
Rope3_Seg09 Rope3_Seg08
R_rear_hand01 Rope3_Seg09
R_rear_hand02 Rope3_Seg09
R_rear_hand03 Rope3_Seg09
Rope4_Seg01 null_rope04_connect
Rope4_Seg02 Rope4_Seg01
Rope4_Seg03 Rope4_Seg02
Rope4_Seg04 Rope4_Seg03
Rope4_Seg05 Rope4_Seg04
Rope4_Seg06 Rope4_Seg05
Rope4_Seg07 Rope4_Seg06
Rope4_Seg08 Rope4_Seg07
Rope4_Seg09 Rope4_Seg08
L_rear_hand01 Rope4_Seg09
L_rear_hand02 Rope4_Seg09
L_rear_hand03 Rope4_Seg09
[BasePosition]
#SegmentName Tx, Ty, Tz, Rx, Ry, Rz, BoneLength
MASTER 0.000000 0.000000 0.000000 -90.000000 0.000000 0.000000 10.000000 
root 0.000000 0.000000 0.000000 0.000000 0.000000 0.000000 10.000000 
chest 0.000000 0.000000 0.000000 0.000000 0.000000 0.000000 10.000000 
L_mid_tent01 0.000000 0.000000 0.000000 0.000000 0.000000 0.000000 10.000000 
R_mid_tent01 0.000000 0.000000 0.000000 0.000000 0.000000 0.000000 10.000000 
spine01 0.000000 0.000000 0.000000 0.000000 0.000000 0.000000 10.000000 
Bip01_Neck 0.000000 0.000000 0.000000 0.000000 0.000000 0.000000 10.000000 
L_humerus 0.000000 0.000000 0.000000 0.000000 0.000000 0.000000 10.000000 
R_humerus 0.000000 0.000000 0.000000 0.000000 0.000000 0.000000 10.000000 
weapon_bone 0.000000 0.000000 0.000000 0.000000 0.000000 0.000000 10.000000 
Bip01_Head 0.000000 0.000000 0.000000 0.000000 0.000000 0.000000 10.000000 
eye_left_bone 0.000000 0.000000 0.000000 0.000000 0.000000 0.000000 10.000000 
eye_right_bone 0.000000 0.000000 0.000000 0.000000 0.000000 0.000000 10.000000 
L_forearm 0.000000 0.000000 0.000000 0.000000 0.000000 0.000000 10.000000 
L_front_hand 0.000000 0.000000 0.000000 0.000000 0.000000 0.000000 10.000000 
L_weapon_bone 0.000000 0.000000 0.000000 0.000000 0.000000 0.000000 10.000000 
L_front_hand01_01 0.000000 0.000000 0.000000 0.000000 0.000000 0.000000 10.000000 
L_front_hand02_01 0.000000 0.000000 0.000000 0.000000 0.000000 0.000000 10.000000 
L_front_hand03_01 0.000000 0.000000 0.000000 0.000000 0.000000 0.000000 10.000000 
L_front_hand01_02 0.000000 0.000000 0.000000 0.000000 0.000000 0.000000 10.000000 
L_front_hand02_02 0.000000 0.000000 0.000000 0.000000 0.000000 0.000000 10.000000 
L_front_hand03_02 0.000000 0.000000 0.000000 0.000000 0.000000 0.000000 10.000000 
R_forearm 0.000000 0.000000 0.000000 0.000000 0.000000 0.000000 10.000000 
R_front_hand 0.000000 0.000000 0.000000 0.000000 0.000000 0.000000 10.000000 
R_weapon_bone 0.000000 0.000000 0.000000 0.000000 0.000000 0.000000 10.000000 
R_front_hand01_01 0.000000 0.000000 0.000000 0.000000 0.000000 0.000000 10.000000 
R_front_hand02_01 0.000000 0.000000 0.000000 0.000000 0.000000 0.000000 10.000000 
R_front_hand03_01 0.000000 0.000000 0.000000 0.000000 0.000000 0.000000 10.000000 
R_front_hand01_02 0.000000 0.000000 0.000000 0.000000 0.000000 0.000000 10.000000 
R_front_hand02_02 0.000000 0.000000 0.000000 0.000000 0.000000 0.000000 10.000000 
R_front_hand03_02 0.000000 0.000000 0.000000 0.000000 0.000000 0.000000 10.000000 
null_rope01_connect 0.000000 0.000000 0.000000 0.000000 0.000000 0.000000 10.000000 
Rope1_Seg01 0.000000 0.000000 0.000000 0.000000 0.000000 0.000000 10.000000 
Rope1_Seg02 0.000000 0.000000 0.000000 0.000000 0.000000 0.000000 10.000000 
Rope1_Seg03 0.000000 0.000000 0.000000 0.000000 0.000000 0.000000 10.000000 
Rope1_Seg04 0.000000 0.000000 0.000000 0.000000 0.000000 0.000000 10.000000 
Rope1_Seg05 0.000000 0.000000 0.000000 0.000000 0.000000 0.000000 10.000000 
Rope1_Seg06 0.000000 0.000000 0.000000 0.000000 0.000000 0.000000 10.000000 
Rope1_Seg07 0.000000 0.000000 0.000000 0.000000 0.000000 0.000000 10.000000 
Rope1_Seg09 0.000000 0.000000 0.000000 0.000000 0.000000 0.000000 10.000000 
L_mid_hand01 0.000000 0.000000 0.000000 0.000000 0.000000 0.000000 10.000000 
L_mid_hand02 0.000000 0.000000 0.000000 0.000000 0.000000 0.000000 10.000000 
L_mid_hand03 0.000000 0.000000 0.000000 0.000000 0.000000 0.000000 10.000000 
null_rope02_connect 0.000000 0.000000 0.000000 0.000000 0.000000 0.000000 10.000000 
Rope2_Seg01 0.000000 0.000000 0.000000 0.000000 0.000000 0.000000 10.000000 
Rope2_Seg02 0.000000 0.000000 0.000000 0.000000 0.000000 0.000000 10.000000 
Rope2_Seg03 0.000000 0.000000 0.000000 0.000000 0.000000 0.000000 10.000000 
Rope2_Seg04 0.000000 0.000000 0.000000 0.000000 0.000000 0.000000 10.000000 
Rope2_Seg05 0.000000 0.000000 0.000000 0.000000 0.000000 0.000000 10.000000 
Rope2_Seg06 0.000000 0.000000 0.000000 0.000000 0.000000 0.000000 10.000000 
Rope2_Seg07 0.000000 0.000000 0.000000 0.000000 0.000000 0.000000 10.000000 
Rope2_Seg09 0.000000 0.000000 0.000000 0.000000 0.000000 0.000000 10.000000 
R_mid_hand01 0.000000 0.000000 0.000000 0.000000 0.000000 0.000000 10.000000 
R_mid_hand02 0.000000 0.000000 0.000000 0.000000 0.000000 0.000000 10.000000 
R_mid_hand03 0.000000 0.000000 0.000000 0.000000 0.000000 0.000000 10.000000 
spine02 0.000000 0.000000 0.000000 0.000000 0.000000 0.000000 10.000000 
spine03 0.000000 0.000000 0.000000 0.000000 0.000000 0.000000 10.000000 
pelvis 0.000000 0.000000 0.000000 0.000000 0.000000 0.000000 10.000000 
null_rope03_connect 0.000000 0.000000 0.000000 0.000000 0.000000 0.000000 10.000000 
null_rope04_connect 0.000000 0.000000 0.000000 0.000000 0.000000 0.000000 10.000000 
Rope3_Seg01 0.000000 0.000000 0.000000 0.000000 0.000000 0.000000 10.000000 
Rope3_Seg02 0.000000 0.000000 0.000000 0.000000 0.000000 0.000000 10.000000 
Rope3_Seg03 0.000000 0.000000 0.000000 0.000000 0.000000 0.000000 10.000000 
Rope3_Seg04 0.000000 0.000000 0.000000 0.000000 0.000000 0.000000 10.000000 
Rope3_Seg05 0.000000 0.000000 0.000000 0.000000 0.000000 0.000000 10.000000 
Rope3_Seg06 0.000000 0.000000 0.000000 0.000000 0.000000 0.000000 10.000000 
Rope3_Seg07 0.000000 0.000000 0.000000 0.000000 0.000000 0.000000 10.000000 
Rope3_Seg08 0.000000 0.000000 0.000000 0.000000 0.000000 0.000000 10.000000 
Rope3_Seg09 0.000000 0.000000 0.000000 0.000000 0.000000 0.000000 10.000000 
R_rear_hand01 0.000000 0.000000 0.000000 0.000000 0.000000 0.000000 10.000000 
R_rear_hand02 0.000000 0.000000 0.000000 0.000000 0.000000 0.000000 10.000000 
R_rear_hand03 0.000000 0.000000 0.000000 0.000000 0.000000 0.000000 10.000000 
Rope4_Seg01 0.000000 0.000000 0.000000 0.000000 0.000000 0.000000 10.000000 
Rope4_Seg02 0.000000 0.000000 0.000000 0.000000 0.000000 0.000000 10.000000 
Rope4_Seg03 0.000000 0.000000 0.000000 0.000000 0.000000 0.000000 10.000000 
Rope4_Seg04 0.000000 0.000000 0.000000 0.000000 0.000000 0.000000 10.000000 
Rope4_Seg05 0.000000 0.000000 0.000000 0.000000 0.000000 0.000000 10.000000 
Rope4_Seg06 0.000000 0.000000 0.000000 0.000000 0.000000 0.000000 10.000000 
Rope4_Seg07 0.000000 0.000000 0.000000 0.000000 0.000000 0.000000 10.000000 
Rope4_Seg08 0.000000 0.000000 0.000000 0.000000 0.000000 0.000000 10.000000 
Rope4_Seg09 0.000000 0.000000 0.000000 0.000000 0.000000 0.000000 10.000000 
L_rear_hand01 0.000000 0.000000 0.000000 0.000000 0.000000 0.000000 10.000000 
L_rear_hand02 0.000000 0.000000 0.000000 0.000000 0.000000 0.000000 10.000000 
L_rear_hand03 0.000000 0.000000 0.000000 0.000000 0.000000 0.000000 10.000000 
#Beginning of Data. Separated by tabs
#Fr	Tx	Ty	Tz	Rx	Ry	Rz	SF
[MASTER]
19 -0.000354 2411.683350 0.000000 0.001660 0.001660 0.001660 2411.683350
20 -0.000354 2411.683350 0.000000 0.001660 0.001660 0.001660 2411.683350
[root]
19 -753.615295 211.702118 1316.428589 -106.309944 -27.665119 -95.665741 1531.580200
20 -786.666138 272.358337 1278.280273 -107.067612 -31.460310 -94.425957 1525.458252
[chest]
19 -84.512650 -34.090519 0.000000 -2.124109 10.256484 171.093170 91.129311
20 -84.512650 -34.090519 0.000000 -2.104284 9.226782 171.065948 91.129311
[L_mid_tent01]
19 27.558468 22.029068 -251.582062 22.821653 57.962856 95.500748 254.043854
20 27.566645 22.024391 -251.634598 21.359308 58.504021 93.740524 254.096375
[R_mid_tent01]
19 23.228794 24.509907 226.238495 173.170273 -26.432743 55.858116 228.744751
20 23.228794 24.509907 226.238495 172.956436 -26.329027 55.884220 228.744751
[spine01]
19 -0.361383 -0.195265 0.000000 0.001869 0.001420 15.534143 0.410763
20 -0.361383 -0.195265 0.000000 0.001869 0.001420 15.534141 0.410763
[Bip01_Neck]
19 165.484543 71.581718 0.000119 175.896118 1.177290 24.871183 180.302734
20 165.484543 71.581718 0.000119 175.896118 1.177290 24.871183 180.302734
[L_humerus]
19 -13.983130 -135.272980 -120.471481 -157.992111 41.348289 -74.310280 181.680161
20 -13.983130 -135.272980 -120.471481 -156.307419 41.408562 -72.497482 181.680161
[R_humerus]
19 -13.983309 -135.273102 125.287651 178.308029 -40.864136 -82.826958 184.909012
20 -13.983309 -135.273102 125.287651 176.628036 -41.179264 -80.950546 184.909012
[weapon_bone]
19 235.964890 -300.705902 0.000000 0.000000 -89.951546 -128.212341 382.234833
20 235.964890 -300.705902 0.000000 0.000000 -89.951546 -128.212341 382.234833
[Bip01_Head]
19 186.019821 185.150085 15.270396 1.072246 4.616635 -50.552666 262.901337
20 186.019806 185.150085 15.270395 1.072246 4.616635 -50.552666 262.901337
[eye_left_bone]
19 -24.626970 125.451866 -64.772606 0.000000 -90.000000 -99.840431 143.318359
20 -24.626970 125.451866 -64.772606 0.000000 -90.000000 -99.840431 143.318359
[eye_right_bone]
19 -24.626970 125.451866 64.327362 0.000000 -89.960434 80.159386 143.117676
20 -24.626970 125.451866 64.327362 0.000000 -89.960434 80.159386 143.117676
[L_forearm]
19 322.776093 0.000000 -0.000119 0.000502 0.002293 -65.301842 322.776093
20 322.776093 0.000000 -0.000119 0.000507 0.002292 -65.031853 322.776093
[L_front_hand]
19 241.149185 -0.042021 -3.300071 -178.667953 -1.835447 -27.422350 241.171753
20 241.149185 -0.042021 -3.300071 -178.667953 -1.835447 -27.422350 241.171753
[L_weapon_bone]
19 156.183838 0.000000 0.000000 0.000014 0.000007 0.000001 156.183838
20 156.183838 0.000000 0.000000 0.000014 0.000007 0.000001 156.183838
[L_front_hand01_01]
19 86.095154 20.947098 -0.655860 -0.366594 -0.477154 75.385574 88.609184
20 86.095154 20.947098 -0.655860 -0.366594 -0.477154 75.385582 88.609184
[L_front_hand02_01]
19 86.935165 -11.437475 24.513514 154.403519 -59.888931 -61.371990 91.046425
20 86.935165 -11.437475 24.513514 154.403519 -59.888931 -61.371990 91.046425
[L_front_hand03_01]
19 86.637497 -14.123976 -20.424902 -153.913849 58.118122 -62.702866 90.126129
20 86.637497 -14.123976 -20.424902 -153.913849 58.118122 -62.702866 90.126129
[L_front_hand01_02]
19 71.020905 -0.000179 0.000030 0.000334 -0.002323 -106.379684 71.020905
20 71.020905 -0.000179 0.000030 0.000334 -0.002323 -106.379684 71.020905
[L_front_hand02_02]
19 71.020927 -0.000119 0.000060 0.000334 -0.002323 -106.379684 71.020927
20 71.020927 -0.000119 0.000060 0.000334 -0.002323 -106.379684 71.020927
[L_front_hand03_02]
19 71.020905 -0.000060 0.000060 0.000334 -0.002323 -106.379684 71.020905
20 71.020905 -0.000060 0.000060 0.000334 -0.002323 -106.379684 71.020905
[R_forearm]
19 322.776428 -0.000060 0.000030 0.159236 -0.143101 -48.892807 322.776428
20 322.776428 -0.000060 0.000030 0.159277 -0.143055 -48.925419 322.776428
[R_front_hand]
19 238.847015 -0.006795 2.210259 -1.531694 0.790216 -51.443054 238.857239
20 238.847015 -0.006795 2.210259 -1.531694 0.790216 -51.443054 238.857239
[R_weapon_bone]
19 155.664093 0.002503 -0.000030 0.003487 0.001180 -90.988930 155.664078
20 155.664093 0.002503 -0.000030 0.003487 0.001180 -90.988930 155.664078
[R_front_hand01_01]
19 87.624611 14.231146 22.918642 -154.633514 -59.950634 61.746063 91.683487
20 87.624611 14.231146 22.918642 -154.633499 -59.950619 61.746044 91.683487
[R_front_hand02_01]
19 89.356956 14.367283 -19.491137 154.602676 58.302864 63.744400 92.579636
20 89.356956 14.367283 -19.491137 154.602661 58.302849 63.744389 92.579636
[R_front_hand03_01]
19 87.286232 -22.307278 -0.143439 0.162155 -0.423168 -75.767921 90.091743
20 87.286232 -22.307278 -0.143439 0.162155 -0.423168 -75.767921 90.091743
[R_front_hand01_02]
19 71.020905 0.000060 0.000119 0.002323 -0.000334 106.381714 71.020905
20 71.020905 0.000060 0.000119 0.002323 -0.000334 106.381714 71.020905
[R_front_hand02_02]
19 71.020844 -0.000030 -0.000119 0.002323 -0.000334 106.381714 71.020836
20 71.020844 -0.000030 -0.000119 0.002323 -0.000334 106.381714 71.020836
[R_front_hand03_02]
19 71.020905 0.000000 0.000030 0.002323 -0.000334 106.381714 71.020905
20 71.020905 0.000000 0.000030 0.002323 -0.000334 106.381714 71.020905
[null_rope01_connect]
19 328.732483 0.000000 -0.000238 -132.824265 -9.778535 168.316071 328.732483
20 328.732483 0.000000 -0.000238 -129.321396 -9.622941 170.712738 328.732483
[Rope1_Seg01]
19 1.100387 -6.935122 -3.806798 85.569031 -2.326838 -142.104279 7.987394
20 1.089173 -7.158204 -3.403851 78.645111 -8.178869 -140.097794 8.000773
[Rope1_Seg02]
19 139.999863 -0.000179 0.000000 8.755442 -9.692866 -0.055183 139.999863
20 139.999863 -0.000179 0.000000 7.839923 -9.177773 -0.529102 139.999863
[Rope1_Seg03]
19 139.999924 0.000060 -0.000060 11.039392 -28.880032 4.701370 139.999924
20 139.999924 0.000060 -0.000060 11.608183 -28.867142 2.507416 139.999924
[Rope1_Seg04]
19 139.999924 -0.000060 -0.000119 -16.018236 -47.705853 33.566280 139.999924
20 139.999924 -0.000060 -0.000119 -17.566513 -52.053726 31.280720 139.999924
[Rope1_Seg05]
19 139.999832 0.000119 -0.000060 -9.479967 -18.809263 6.123482 139.999832
20 139.999832 0.000119 -0.000060 -10.932455 -19.346561 4.652612 139.999832
[Rope1_Seg06]
19 139.999954 0.000119 -0.000060 -17.897272 -17.079683 -5.414454 139.999954
20 139.999954 0.000119 -0.000060 -19.075788 -17.415588 -6.239826 139.999954
[Rope1_Seg07]
19 139.999985 0.000060 0.000000 -23.304123 -18.270752 -17.105190 139.999985
20 139.999985 0.000060 0.000000 -24.251099 -19.206732 -19.824514 139.999985
[Rope1_Seg09]
19 121.602913 0.000119 -0.000089 -89.793175 -1.359789 0.847147 121.602913
20 121.602913 0.000119 -0.000089 -89.793175 -1.359789 0.847147 121.602913
[L_mid_hand01]
19 103.859421 1.038730 8.195221 116.294914 -23.111713 -31.758034 104.187431
20 103.859421 1.038730 8.195221 116.294914 -23.111719 -31.758038 104.187431
[L_mid_hand02]
19 105.572853 -4.139662 -10.864139 -144.219833 17.447468 -35.360519 106.211075
20 105.572853 -4.139662 -10.864139 -144.219833 17.447470 -35.360519 106.211075
[L_mid_hand03]
19 104.641464 17.579376 -3.913581 -17.830780 17.153103 31.982925 106.179977
20 104.641464 17.579376 -3.913581 -17.830780 17.153103 31.982922 106.179977
[null_rope02_connect]
19 328.732849 0.000179 -0.000119 -60.942543 74.743652 58.961006 328.732849
20 328.732849 0.000179 -0.000119 -55.185963 73.357346 61.057819 328.732849
[Rope2_Seg01]
19 0.000067 0.000208 0.000018 -39.513851 29.343853 67.298828 0.000219
20 0.000067 0.000211 0.000019 -37.294907 29.407278 71.314514 0.000222
[Rope2_Seg02]
19 139.999741 -0.000060 -0.000119 0.373908 4.008277 1.727069 139.999756
20 139.999741 -0.000060 -0.000119 0.468417 4.350237 1.212248 139.999756
[Rope2_Seg03]
19 140.000107 0.000030 0.000000 0.299695 6.122130 2.608201 140.000107
20 140.000107 0.000030 0.000000 0.417085 6.750673 1.834658 140.000107
[Rope2_Seg04]
19 139.999802 0.000000 -0.000060 -0.263858 11.080523 4.334851 139.999802
20 139.999802 0.000000 -0.000060 -0.197819 12.394585 3.020115 139.999802
[Rope2_Seg05]
19 139.999985 -0.000060 0.000119 -3.964386 23.302181 9.205943 139.999985
20 139.999985 -0.000060 0.000119 -4.747324 26.279934 6.308725 139.999985
[Rope2_Seg06]
19 139.999893 -0.000030 -0.000119 -6.854426 10.218885 11.417964 139.999893
20 139.999893 -0.000030 -0.000119 -8.856657 13.297492 10.015845 139.999893
[Rope2_Seg07]
19 139.999893 0.000060 -0.000060 -3.746985 1.907070 6.718433 139.999893
20 139.999893 0.000060 -0.000060 -5.328737 3.152504 6.629496 139.999893
[Rope2_Seg09]
19 121.338966 0.000089 -0.000060 33.793236 -1.359788 -0.847141 121.338966
20 121.338966 0.000089 -0.000060 33.793236 -1.359788 -0.847141 121.338966
[R_mid_hand01]
19 104.680779 11.144459 -10.335981 -41.523792 25.424656 28.595957 105.778534
20 104.680779 11.144459 -10.335981 -41.523792 25.424656 28.595957 105.778534
[R_mid_hand02]
19 104.070427 2.443552 8.231699 72.847389 -32.746803 10.013901 104.424065
20 104.070427 2.443552 8.231699 72.847389 -32.746803 10.013901 104.424065
[R_mid_hand03]
19 106.028137 -11.221827 -5.996406 -167.901306 10.259192 -37.009720 106.788818
20 106.028137 -11.221827 -5.996406 -167.901306 10.259192 -37.009720 106.788818
[spine02]
19 129.756927 0.001550 0.000119 -0.245322 -4.052060 -4.355547 129.756927
20 129.756927 0.001550 0.000119 -0.245322 -4.052060 -4.355547 129.756927
[spine03]
19 78.613861 0.087280 -4.898809 0.369659 4.260734 -4.885720 78.766396
20 78.613861 0.087280 -4.898809 0.369659 4.260734 -4.885720 78.766396
[pelvis]
19 169.435242 0.051022 0.000000 -0.010007 -0.191417 -1.897554 169.435257
20 169.435242 0.051022 0.000000 -0.010007 -0.191417 -1.897554 169.435257
[null_rope03_connect]
19 -1.257226 -2.466202 137.391083 -137.387466 -70.844788 -110.032303 137.418976
20 -1.257226 -2.466202 137.391083 -137.416626 -70.700203 -106.059715 137.418976
[null_rope04_connect]
19 -1.259640 -2.480268 -137.844437 -137.387466 -70.844788 -110.032303 137.872513
20 -1.259640 -2.480268 -137.844437 -137.416626 -70.700203 -106.059715 137.872513
[Rope3_Seg01]
19 -0.000008 0.000073 -0.000037 59.831718 -38.652809 47.075851 0.000082
20 -0.000008 0.000077 -0.000039 64.328003 -39.344494 43.814121 0.000087
[Rope3_Seg02]
19 139.999924 -0.000119 0.000060 0.057051 0.006603 0.002652 139.999924
20 139.999924 -0.000119 0.000060 0.056037 0.006616 0.001650 139.999924
[Rope3_Seg03]
19 139.999924 -0.000119 0.000119 0.056062 0.006604 0.001663 139.999924
20 139.999924 -0.000119 0.000119 0.051082 0.011566 0.001649 139.999924
[Rope3_Seg04]
19 139.999924 0.000119 0.000000 -0.020596 0.009078 0.001658 139.999924
20 139.999924 0.000119 0.000000 -0.028067 0.016521 0.001636 139.999924
[Rope3_Seg05]
19 139.999924 -0.000238 0.000060 0.100579 0.041217 0.011586 139.999924
20 139.999924 -0.000238 0.000060 0.095521 0.041288 0.006606 139.999924
[Rope3_Seg06]
19 139.999893 -0.000119 -0.000060 0.392369 0.021417 0.006678 139.999893
20 139.999893 -0.000119 -0.000060 0.387335 0.021499 0.001715 139.999893
[Rope3_Seg07]
19 139.999771 0.000060 -0.000119 0.550638 -0.052679 -0.013429 139.999771
20 139.999771 0.000060 -0.000119 0.560558 -0.052730 -0.008488 139.999771
[Rope3_Seg08]
19 139.999985 -0.000060 0.000000 0.560524 -0.027977 -0.008367 139.999985
20 139.999985 -0.000060 0.000000 0.565484 -0.028010 -0.003425 139.999985
[Rope3_Seg09]
19 90.185997 -0.000179 -0.000060 89.793228 -1.359877 -0.847183 90.185997
20 90.185997 -0.000179 -0.000060 89.793228 -1.359877 -0.847183 90.185997
[R_rear_hand01]
19 103.366196 -6.073594 -10.757982 -158.627975 33.644127 -23.327253 104.101845
20 103.366196 -6.073594 -10.757982 -158.627975 33.644127 -23.327253 104.101845
[R_rear_hand02]
19 100.509819 12.039542 -7.992327 -36.327797 26.496241 23.332451 101.543350
20 100.509819 12.039542 -7.992327 -36.327793 26.496241 23.332451 101.543350
[R_rear_hand03]
19 101.539970 5.215704 5.435467 73.054993 -27.152538 27.950705 101.819031
20 101.539970 5.215704 5.435467 73.054993 -27.152538 27.950705 101.819031
[Rope4_Seg01]
19 -0.000036 0.000034 0.000134 90.791733 -40.066082 -157.243195 0.000143
20 -0.000036 0.000033 0.000133 78.545891 -37.324558 -147.388718 0.000142
[Rope4_Seg02]
19 139.999985 0.000060 0.000119 15.632007 -10.855559 6.757519 139.999985
20 139.999985 0.000060 0.000119 12.556084 -11.753604 6.101467 139.999985
[Rope4_Seg03]
19 139.999924 0.000000 -0.000238 24.874153 -11.126450 12.745320 139.999924
20 139.999924 0.000000 -0.000238 23.476501 -13.925646 12.283530 139.999924
[Rope4_Seg04]
19 139.999985 0.000000 0.000119 18.915628 -1.953486 16.459719 139.999985
20 139.999985 0.000000 0.000119 21.372034 -5.348745 17.798195 139.999985
[Rope4_Seg05]
19 139.999802 -0.000060 -0.000119 12.551928 -0.740313 14.513336 139.999802
20 139.999802 -0.000060 -0.000119 13.478323 -1.982876 15.134407 139.999802
[Rope4_Seg06]
19 139.999924 0.000000 0.000060 13.441099 -2.398192 20.574821 139.999924
20 139.999924 0.000000 0.000060 14.409988 -3.211705 21.938921 139.999924
[Rope4_Seg07]
19 139.999802 0.000000 0.000000 7.681453 2.395693 18.415293 139.999802
20 139.999802 0.000000 0.000000 8.391860 2.381344 20.661232 139.999802
[Rope4_Seg08]
19 139.999924 0.000000 0.000119 0.868366 2.982393 9.435112 139.999924
20 139.999924 0.000000 0.000119 0.853960 3.143430 10.215923 139.999924
[Rope4_Seg09]
19 90.185791 0.000060 0.000060 -135.617828 2.228885 0.850567 90.185791
20 90.185791 0.000060 0.000060 -135.617828 2.228885 0.850567 90.185791
[L_rear_hand01]
19 101.696655 -8.392275 -7.654577 -33.685818 -15.212530 149.017090 102.329041
20 101.696655 -8.392275 -7.654577 -33.685818 -15.212529 149.017105 102.329041
[L_rear_hand02]
19 102.726799 -1.568258 5.773216 83.407906 30.330435 172.796509 102.900848
20 102.726799 -1.568258 5.773216 83.407906 30.330435 172.796509 102.900848
[L_rear_hand03]
19 104.552910 9.721220 -10.420293 -160.801239 -15.606593 -150.211823 105.519653
20 104.552910 9.721220 -10.420293 -160.801239 -15.606593 -150.211823 105.519653
